<svg xmlns="http://www.w3.org/2000/svg" viewBox="0 0 512 512">
  <rect width="512" height="512" fill="#10b981" rx="100"/>
  <path fill="#ffffff" d="M384 256c0 70.7-57.3 128-128 128s-128-57.3-128-128c0-67.6 52.6-123 119.3-127.8v42.8c-42.5 4.5-76.3 40.5-76.3 85 0 47.1 38.3 85.3 85.3 85.3s85.3-38.3 85.3-85.3c0-44.5-33.8-80.5-76.3-85v-42.8C331.4 133 384 188.4 384 256zm-112-96c0-8.8-7.2-16-16-16s-16 7.2-16 16v96c0 8.8 7.2 16 16 16s16-7.2 16-16v-96zm16-64c-17.7 0-32 14.3-32 32s14.3 32 32 32 32-14.3 32-32-14.3-32-32-32z"/>
</svg>
